<svg xmlns="http://www.w3.org/2000/svg" width="341px" height="353px" viewBox="0 0 341 353">
  <g stroke="none" stroke-width="1" fill="none" fill-rule="evenodd" stroke-linecap="round" stroke-linejoin="round">
    <g transform="translate(-2425.000000, -1009.000000)" stroke="#000000" stroke-width="0.5">
      <polyline points="2426.72032 1230.38642 2428.39496 1234.19241 2437.3771 1227.29206 2441.19017 1220.8378 2443.01705 1217.54163 2449.4359 1214.82256 2447.10274 1213.6011 2450.63966 1207.28138 2458.49594 1209.49063 2461.64695 1207.28138 2463.90222 1202.83103 2466.27787 1203.37626 2461.76378 1195.52706 2464.75901 1193.86304 2465.81053 1196.44404 2468.33841 1187.88321 2475.06529 1206.70429 2476.37526 1205.07214 2478.93147 1227.07963 2481.91253 1224.78187 2482.06831 1229.19682 2483.58363 1224.37118 2485.60523 1224.94827 2483.0384 1230.1138 2489.18464 1227.46554 2488.40573 1241.9708 2486.65675 1244.04551 2491.32307 1253.62599 2492.56931 1250.83965 2494.86353 1258.4835 2502.11085 1267.57894 2507.46403 1277.47806 2506.64618 1283.22069 2500.62032 1281.89301 2508.63238 1305.10072 2521.03814 1305.61055 2532.64023 1303.42963 2531.24175 1294.38729 2533.68112 1288.92791 2540.01854 1287.56837 2538.81125 1283.72697 2550.09469 1283.4579 2558.88211 1284.20493 2567.33319 1256.0512 2564.09367 1234.93945 2568.76353 1234.83677 2566.04092 1232.45759 2568.85912 1226.86366 2561.88088 1219.78274 2569.85399 1219.03571 2557.24996 1215.70767 2570.45233 1214.0295 2576.07458 1211.52639 2575.18238 1210.44301 2576.65875 1207.5894 2578.68036 1199.7048 2582.18187 1208.9454 2590.97283 1198.07619 2589.65224 1195.49165 2589.60975 1193.25054 2597.54392 1182.82035 2598.43966 1181.39355 2589.76553 1171.74226 2589.25925 1173.81342 2578.13867 1160.53316 2574.40348 1163.3195 2566.62509 1158.86561 2561.60826 1135.35696 2563.62987 1134.64179 2561.95523 1133.96202 2562.03666 1131.78818 2566.85522 1133.96202 2564.15385 1126.8457 2567.01454 1117.52013 2563.24042 1109.70279 2567.28716 1111.47302 2569.97083 1103.55656 2565.96303 1094.68771 2574.13087 1100.35952 2572.98376 1099.13806 2577.00926 1095.53742 2572.96606 1095.81003 2580.93917 1087.65636 2586.11178 1081.19856 2589.14241 1082.21821 2587.43237 1078.88664 2591.28085 1081.77565 2601.7075 1070.87104 2611.66327 1051.02677 2609.8364 1050.82496 2611.0791 1049.16095 2604.66378 1045.62757 2606.76328 1045.39036 2602.71653 1041.14181 2604.07961 1042.05879 2608.90171 1028.02795 2605.94543 1027.68806 2609.8718 1021.30107 2616.09593 1020.31683 2614.54167 1011.61792 2618.82208 1013.82717 2618.08212 1010.22298 2626.3668 1013.58996 2624.42309 1010.7328 2627.72633 1012.23042 2628.03789 1010.12385 2637.78124 1009.27414 2644.60724 1012.87478 2659.30723 1028.60504 2656.08187 1029.21754 2658.49292 1032.37917 2649.77985 1034.51761 2645.77205 1045.32309 2641.06678 1057.31462 2627.84317 1075.52674 2626.67836 1074.26988 2629.12482 1079.43187 2624.15047 1084.08757 2623.75748 1082.0164 2617.88386 1082.69617 2620.21702 1089.01589 2617.49795 1107.59976 2628.3884 1128.32207 2625.70473 1127.84765 2627.53161 1129.37712 2625.31528 1129.88695 2627.49266 1140.86237 2633.52207 1155.881 2635.11527 1153.12652 2635.73839 1155.81019 2637.17582 1154.18158 2648.65045 1156.86525 2647.87509 1160.36322 2655.80925 1156.59263 2656.7404 1164.44183 2664.71351 1162.23258 2676.4997 1160.39508 2676.57759 1162.16177 2678.36552 1160.77037 2677.94066 1163.01502 2679.3002 1157.71496 2685.13488 1154.82594 2693.80546 1149.72768 2698.82229 1151.01995 2700.766 1148.98065 2697.84866 1145.07198 2702.20697 1144.87017 2704.18963 1146.66873 2705.24114 1143.44337 2715.54742 1138.99301 2720.1748 1140.89424 2724.02682 1139.43557 2723.52053 1136.92184 2736.5565 1129.82676 2738.06474 1136.51115 2733.94364 1134.81173 2765.7228 1143.51064 2747.71249 1148.40355 2745.76878 1153.50181 2740.20671 1152.48216 2738.96047 1158.39473 2734.09942 1155.77833 2730.78909 1167.04761 2716.9813 1167.85837 2702.24591 1169.46928 2699.44541 1167.26003 2700.06853 1169.91184 2696.60596 1168.31509 2686.60771 1172.52824 2687.07505 1175.88813 2678.13185 1180.20749 2675.98987 1179.18784 2676.4997 1182.21139 2672.18034 1184.48791 2669.69139 1191.6538 2671.44038 1189.81984 2669.22405 1193.18328 2670.66148 1197.32915 2677.2786 1196.20683 2676.12795 1204.00292 2683.42837 1209.04453 2690.50929 1207.38406 2691.97858 1222.8771 2690.09152 1241.03612 2675.19681 1235.9237 2663.08136 1226.17327 2647.55999 1246.4247 2645.49944 1265.82641 2644.13636 1264.66868 2649.73029 1290.62733 2641.76779 1305.8513 2635.27105 1306.83201 2633.53623 1310.24147 2615.08336 1324.90959 2607.18105 1314.78034 2572.42791 1327.07635 2553.98211 1336.77367 2538.65547 1343.56073 2542.39065 1345.76997 2542.15698 1351.88435 2528.21465 1345.37698 2527.13127 1339.77244 2521.46654 1339.96008 2512.32862 1331.39925 2502.68087 1336.66391 2501.16201 1334.89722 2496.49568 1341.0116 2489.49266 1339.24491 2486.73464 1343.16774 2481.73551 1345.22474 2473.5004 1343.99266 2476.85322 1334.3874 2461.21855 1335.03176 2462.27007 1331.90554 2456.12383 1331.39925 2457.29218 1323.21017 2448.36314 1322.34984 2452.11603 1319.47145 2453.05071 1321.34081 2449.08186 1316.58597 2453.62427 1311.13012 2450.17232 1304.48822 2455.61754 1301.12479 2450.75649 1298.61106 2456.59117 1295.04228 2461.41328 1295.10955 2466.46905 1282.99764 2466.93285 1286.14156 2469.34744 1284.58022 2470.00951 1286.92401 2473.89693 1277.98789 2463.90222 1275.0316 2461.06277 1278.4269 2464.17483 1272.44707 2454.99442 1273.6048 2463.51277 1271.66817 2459.05887 1262.54441 2451.1424 1264.9413 2444.57131 1268.88183 2446.86553 1276.90097 2442.43288 1275.67597 2442.12131 1268.9491 2440.06077 1272.14259 2435.47233 1278.18969 2429.36504 1275.84591 2428.73838 1271.36369 2426.49727 1282.679 2430.52985 1292.7162 2426.93983 1298.01626 2425.59445 1302.80651 2429.09243 1304.79624 2429.16678 1301.70542 2434.88816 1322.10555 2440.71929 1330.3796 2434.38187 1333.70763 2434.92356 1337.27641 2440.06077 1335.84961 2440.44668 1343.86875 2438.38613 1342.91636 2447.07796 1348.36867 2450.48388 1354.70609 2435.97508 1348.3191 2431.22732 1361.29843"></polyline>
    </g>
  </g>
</svg>
